# xmcd
#
# Track frame offsets:
#	150
#	17996
#	40878
#	62931
#	81091
#	101313
#	120647
#	142722
#	164130
#	180253
#	200866
#	217969
#	237839
#	256822
#	275787
#	293639
#
# Disc length: 4160 seconds
#
# Revision: 1
# Processed by: cddbd v1.5.2PL0 Copyright (c) Steve Scherf et al.
# Submitted via: EasyCDDAExtractor 12.0.1.1
#
DISCID=e6103e10
DTITLE=Karel Gott - Lucie Bílá - Duety
DYEAR=2008
DGENRE=Pop
TTITLE0=Krása
TTITLE1=Co sudičky přáli nám
TTITLE2=Za střípek lásky
TTITLE3=Jarní setkání
TTITLE4=Ken jednou smím se ti lásko vzdát
TTITLE5=Potmě jsme všichno stejní
TTITLE6=Hold lásce
TTITLE7=S muzikou
TTITLE8=Pánbůh se splet
TTITLE9=Krédo
TTITLE10=Píseň nám kouzlo skrývá
TTITLE11=Fax mi bejby neposílej
TTITLE12=Poslední noc
TTITLE13=Šťastná hvězda
TTITLE14=Amor ti vieta
TTITLE15=Sen v nás zůstává
EXTD=
EXTT0=
EXTT1=
EXTT2=
EXTT3=
EXTT4=
EXTT5=
EXTT6=
EXTT7=
EXTT8=
EXTT9=
EXTT10=
EXTT11=
EXTT12=
EXTT13=
EXTT14=
EXTT15=
PLAYORDER=
